<svg aria-hidden="true" style="position: absolute; width: 0; height: 0; overflow: hidden;" version="1.1" xmlns="http://www.w3.org/2000/svg" xmlns:xlink="http://www.w3.org/1999/xlink">
<defs>
<symbol id="icon-phone" viewBox="0 0 32 32">
<path d="M22.111 16.778c-0.062 0.093-0.062 0.187-0.093 0.311-0.031 0.404 0.28 0.777 0.684 0.808s0.777-0.28 0.809-0.684c0-0.093 0-0.187 0.031-0.342 0-0.155 0-0.249 0-0.342 0-0.902-0.156-1.773-0.435-2.612-0.373-1.088-1.026-2.053-1.804-2.861-0.964-0.964-2.146-1.648-3.483-2.021-0.622-0.155-1.306-0.249-1.959-0.249-0.218 0-0.435 0-0.684 0.031-0.218 0.031-0.435 0.062-0.653 0.093-0.404 0.062-0.684 0.466-0.591 0.84 0.062 0.404 0.466 0.684 0.84 0.591 0.187-0.031 0.342-0.062 0.529-0.062 0.031 0 0.062 0 0.093 0 0.155 0 0.311-0.031 0.466-0.031 1.71 0 3.296 0.684 4.416 1.835 1.12 1.12 1.804 2.643 1.835 4.354v0.062c0 0.124 0 0.218 0 0.28z"></path>
<path d="M26.216 17.462c-0.031 0.404 0.28 0.777 0.684 0.808s0.777-0.28 0.808-0.684c0.031-0.342 0.031-0.684 0.031-1.026 0-0.684-0.062-1.337-0.155-1.99-0.404-2.488-1.617-4.727-3.328-6.437-1.959-1.959-4.571-3.234-7.464-3.452-0.311-0.031-0.653-0.031-0.964-0.031-0.342 0-0.684 0-1.026 0.031s-0.684 0.062-1.026 0.124c-0.404 0.062-0.684 0.466-0.591 0.84 0.062 0.404 0.467 0.684 0.84 0.591 0.218-0.031 0.404-0.062 0.622-0.093 0.093 0 0.187-0.031 0.28-0.031 0.311-0.031 0.622-0.031 0.902-0.031 1.057 0 2.053 0.155 3.017 0.435 1.679 0.498 3.172 1.399 4.385 2.612 0.995 0.995 1.804 2.208 2.332 3.514 0.466 1.182 0.746 2.488 0.746 3.856 0 0.093 0 0.218 0 0.311-0.062 0.249-0.093 0.435-0.093 0.653z"></path>
<path d="M27.273 5.147c-2.954-2.954-6.997-4.758-11.475-4.758-0.467 0-0.933 0.031-1.399 0.062s-0.933 0.093-1.399 0.187c-0.404 0.062-0.684 0.466-0.591 0.84 0.062 0.404 0.467 0.684 0.84 0.591 0.218-0.031 0.404-0.062 0.622-0.093s0.435-0.062 0.653-0.062 0.84-0.062 1.275-0.062c4.043 0 7.712 1.648 10.387 4.292 2.643 2.643 4.292 6.313 4.292 10.387 0 0.218 0 0.466 0 0.684 0 0.187-0.031 0.373-0.031 0.591-0.031 0.404 0.28 0.777 0.684 0.808s0.777-0.28 0.809-0.684c0.031-0.466 0.062-0.933 0.062-1.368 0-4.447-1.804-8.49-4.727-11.413z"></path>
<path d="M30.849 23.993l-5.504-2.954c-1.835-0.995-1.897-0.342-3.825 1.71-0.466 0.498-1.337 1.804-2.363 1.555-2.146-0.529-6.157-3.67-7.464-5.1-0.622-0.684-3.296-3.949-3.328-5.007-0.062-1.617 3.483-2.426 2.332-5.504l-2.457-5.504c-2.301-5.287-8.739 3.172-8.21 7.122 1.368 9.734 18.441 25.47 27.958 20.276 2.115-1.182 4.976-5.318 2.861-6.593z"></path>
</symbol>
<symbol id="icon-loader" viewBox="0 0 30 32">
<path d="M13.909 6.939c1.918 0 3.472-1.553 3.472-3.47s-1.555-3.47-3.472-3.47c-1.918 0-3.472 1.553-3.472 3.47s1.555 3.47 3.472 3.47z"></path>
<path d="M20.71 8.486c1.744 0 3.158-1.413 3.158-3.156s-1.414-3.156-3.158-3.156c-1.744 0-3.158 1.413-3.158 3.156s1.414 3.156 3.158 3.156z"></path>
<path d="M25.615 13.237c1.569 0 2.842-1.271 2.842-2.84s-1.272-2.84-2.842-2.84c-1.569 0-2.842 1.271-2.842 2.84s1.272 2.84 2.842 2.84z"></path>
<path d="M29.74 17.662c0.224-1.376-0.711-2.672-2.088-2.895s-2.674 0.711-2.898 2.087c-0.224 1.376 0.711 2.672 2.088 2.895s2.674-0.711 2.898-2.087z"></path>
<path d="M25.154 26.194c1.22 0 2.209-0.988 2.209-2.208s-0.989-2.208-2.209-2.208-2.209 0.988-2.209 2.208c0 1.219 0.989 2.208 2.209 2.208z"></path>
<path d="M19.918 30.606c1.047 0 1.895-0.848 1.895-1.894s-0.848-1.894-1.895-1.894c-1.047 0-1.895 0.848-1.895 1.894s0.849 1.894 1.895 1.894z"></path>
<path d="M13.005 31.686c0.872 0 1.579-0.706 1.579-1.578s-0.707-1.578-1.579-1.578c-0.872 0-1.579 0.706-1.579 1.578s0.707 1.578 1.579 1.578z"></path>
<path d="M6.344 29.052c0.697 0 1.263-0.565 1.263-1.262s-0.565-1.262-1.263-1.262c-0.697 0-1.263 0.565-1.263 1.262s0.565 1.262 1.263 1.262z"></path>
<path d="M1.794 23.349c0.523 0 0.947-0.424 0.947-0.946s-0.424-0.946-0.947-0.946c-0.523 0-0.947 0.423-0.947 0.946s0.424 0.946 0.947 0.946z"></path>
<path d="M0.632 16.083c0.349 0 0.632-0.283 0.632-0.632s-0.283-0.632-0.632-0.632c-0.349 0-0.632 0.283-0.632 0.632s0.283 0.632 0.632 0.632z"></path>
<path d="M3.178 9.193c-0.063 0.001-0.124-0.017-0.177-0.051s-0.094-0.083-0.118-0.141c-0.025-0.058-0.031-0.121-0.019-0.183s0.042-0.118 0.086-0.163c0.044-0.045 0.1-0.075 0.162-0.088s0.125-0.006 0.183 0.017 0.108 0.064 0.143 0.116c0.035 0.052 0.054 0.113 0.054 0.176 0 0.083-0.033 0.163-0.091 0.222s-0.138 0.093-0.221 0.094z"></path>
</symbol>
<symbol id="icon-arrow" viewBox="0 0 32 32">
<path d="M17.818 30.545v-22.127l10.164 10.164 2.564-2.582-14.545-14.545-14.545 14.545 2.564 2.564 10.164-10.145v22.127h3.636z"></path>
</symbol>
<symbol id="icon-menu" viewBox="0 0 48 32">
<path d="M0 32h48v-5.333h-48v5.333zM0 18.667h48v-5.333h-48v5.333zM0 0v5.333h48v-5.333h-48z"></path>
</symbol>
<symbol id="icon-cross" viewBox="0 0 32 32">
<path d="M32 3.223l-3.223-3.223-12.777 12.777-12.777-12.777-3.223 3.223 12.777 12.777-12.777 12.777 3.223 3.223 12.777-12.777 12.777 12.777 3.223-3.223-12.777-12.777 12.777-12.777z"></path>
</symbol>
</defs>
</svg>
